HIERARCHY
ROOT Joint1
{
	OFFSET 0.000000 0.000000 0.000000
	CHANNELS 6 Xposition Yposition Zposition Xrotation Yrotation Zrotation
	JOINT Joint2
	{
		OFFSET -0.000000 0.000000 1.456275
		CHANNELS 6 Xposition Yposition Zposition Xrotation Yrotation Zrotation
		JOINT Joint3
		{
			OFFSET -0.000000 0.000002 1.471446
			CHANNELS 6 Xposition Yposition Zposition Xrotation Yrotation Zrotation
			JOINT Joint4
			{
				OFFSET 0.625745 0.000000 0.917755
				CHANNELS 6 Xposition Yposition Zposition Xrotation Yrotation Zrotation
				JOINT Joint5
				{
					OFFSET -0.629534 0.000001 0.940221
					CHANNELS 6 Xposition Yposition Zposition Xrotation Yrotation Zrotation
					JOINT Joint6
					{
						OFFSET -0.000001 0.113772 1.960660
						CHANNELS 6 Xposition Yposition Zposition Xrotation Yrotation Zrotation
						JOINT Joint7
						{
							OFFSET -0.669733 -0.113771 0.388340
							CHANNELS 6 Xposition Yposition Zposition Xrotation Yrotation Zrotation
							End Site
							{
								OFFSET 0.005509 0.005509 0.438980
							}
						}
					}
				}
			}
		}
	}
}
MOTION
Frames: 27
Frame Time: 0.041667
0.000000 0.000000 0.000000 -0.000000 1.019410 -0.004571 -0.000000 -0.000000 1.456275 0.000000 -44.968579 0.000000 -0.000000 0.000002 1.471446 0.000000 -1.133464 -0.048001 0.625744 0.000000 0.917755 0.000004 135.013838 -0.000001 -0.629534 0.000001 0.940221 -0.000000 1.709736 0.007226 -0.000001 0.113772 1.960660 -88.356919 89.996519 -0.037783 -0.669733 -0.113771 0.388340 -0.704869 3.566198 134.947107 
0.000000 0.000000 0.000000 -0.000000 1.019410 0.012385 -0.000000 -0.000000 1.456275 -0.000000 -44.940336 -0.000000 -0.000000 0.000002 1.471446 0.000000 -1.133458 -0.083042 0.625744 0.000000 0.917755 0.000004 134.995861 -0.000001 -0.629534 0.000001 0.940221 0.000000 1.709736 0.082921 -0.000001 0.113772 1.960661 -88.299818 90.047076 0.002634 -0.669733 -0.113771 0.388339 -0.703516 3.566195 134.870978 
0.000000 0.000000 0.000000 -0.000000 1.019410 0.043230 -0.000000 0.000000 1.456275 -0.000000 -44.888959 -0.000000 -0.000000 0.000002 1.471446 0.000000 -1.133458 -0.146784 0.625744 0.000000 0.917755 0.000004 134.963186 -0.000001 -0.629534 0.000001 0.940221 -0.000000 1.709736 0.220620 -0.000001 0.113772 1.960660 -88.302543 90.139045 0.000887 -0.669733 -0.113771 0.388340 -0.701056 3.566187 134.732475 
0.000000 0.000000 0.000000 -0.000000 1.019410 0.090079 -0.000000 0.000000 1.456275 -0.000000 -44.810928 -0.000000 -0.000001 0.000002 1.471445 0.000000 -1.133464 -0.243600 0.625744 0.000000 0.917755 0.000004 134.913530 -0.000001 -0.629534 0.000001 0.940221 0.000000 1.709736 0.429764 -0.000001 0.113772 1.960661 -88.303233 90.278729 0.000443 -0.669733 -0.113771 0.388340 -0.697320 3.566162 134.522119 
0.000000 0.000000 0.000000 -0.000000 1.019410 0.155048 -0.000000 0.000000 1.456275 -0.000000 -44.702710 -0.000000 -0.000000 0.000002 1.471446 -0.000000 -1.133462 -0.377861 0.625745 0.000000 0.917755 0.000004 134.844655 -0.000001 -0.629533 0.000001 0.940221 -0.000000 1.709736 0.719797 -0.000000 0.113772 1.960661 -88.303500 90.472440 0.000266 -0.669733 -0.113771 0.388340 -0.692139 3.566106 134.230388 
0.000000 0.000000 0.000000 -0.000000 1.019410 0.240251 -0.000000 0.000000 1.456275 0.000000 -44.560789 0.000000 -0.000000 0.000002 1.471445 0.000000 -1.133462 -0.553936 0.625744 0.000000 0.917755 0.000004 134.754359 -0.000001 -0.629534 0.000001 0.940221 -0.000000 1.709736 1.100159 -0.000001 0.113772 1.960660 -88.303609 90.726475 0.000164 -0.669733 -0.113771 0.388340 -0.685344 3.565992 133.847816 
0.000000 0.000000 0.000000 -0.000000 1.019410 0.347804 -0.000000 0.000000 1.456275 0.000000 -44.381640 0.000000 -0.000000 0.000002 1.471446 -0.000000 -1.133463 -0.776197 0.625745 0.000000 0.917755 0.000003 134.640377 -0.000001 -0.629534 0.000001 0.940221 -0.000000 1.709737 1.580294 -0.000001 0.113772 1.960661 -88.303698 91.047152 0.000121 -0.669733 -0.113771 0.388340 -0.676769 3.565784 133.364880 
0.000000 0.000000 0.000000 -0.000000 1.019410 0.479821 -0.000000 0.000000 1.456275 -0.000000 -44.161746 0.000000 -0.000000 0.000002 1.471445 0.000000 -1.133460 -1.049015 0.625744 0.000000 0.917755 0.000004 134.500440 -0.000001 -0.629533 0.000001 0.940221 -0.000000 1.709736 2.169643 -0.000001 0.113772 1.960660 -88.303752 91.440776 0.000093 -0.669733 -0.113771 0.388340 -0.666246 3.565431 132.772102 
0.000000 0.000000 0.000000 -0.000000 1.019410 0.638418 -0.000000 -0.000000 1.456275 0.000000 -43.897571 -0.000000 -0.000000 0.000002 1.471446 0.000000 -1.133460 -1.376760 0.625744 0.000000 0.917755 0.000003 134.332349 -0.000001 -0.629534 0.000001 0.940221 -0.000000 1.709737 2.877648 -0.000001 0.113772 1.960661 -88.303780 91.913644 0.000069 -0.669733 -0.113771 0.388340 -0.653610 3.564861 132.059973 
0.000000 0.000000 0.000000 -0.000000 1.019410 0.825710 -0.000000 0.000000 1.456275 0.000000 -43.585606 -0.000000 -0.000001 0.000002 1.471445 -0.000000 -1.133458 -1.763804 0.625745 0.000000 0.917755 0.000004 134.133850 -0.000001 -0.629533 0.000001 0.940221 -0.000000 1.709736 3.713752 -0.000001 0.113772 1.960660 -88.303800 92.472067 0.000045 -0.669733 -0.113771 0.388340 -0.638699 3.563987 131.219013 
0.000000 0.000000 0.000000 -0.000000 1.019410 1.043811 -0.000000 0.000000 1.456275 0.000000 -43.222318 -0.000000 -0.000001 0.000002 1.471446 0.000000 -1.133463 -2.214517 0.625744 0.000000 0.917754 0.000003 133.902689 -0.000001 -0.629534 0.000001 0.940221 -0.000000 1.709736 4.687395 -0.000000 0.113772 1.960660 -88.303827 93.122355 0.000045 -0.669733 -0.113771 0.388341 -0.621352 3.562694 130.239686 
0.000000 0.000000 0.000000 -0.000000 1.019410 1.292193 -0.000000 0.000000 1.456275 -0.000000 -42.808607 0.000000 -0.000000 0.000002 1.471446 -0.000000 -1.133464 -2.727806 0.625745 0.000000 0.917755 0.000003 133.639440 -0.000001 -0.629534 0.000001 0.940221 -0.000000 1.709737 5.796218 -0.000001 0.113772 1.960660 -88.303841 93.862925 0.000032 -0.669733 -0.113771 0.388340 -0.601628 3.560862 129.124412 
0.000000 0.000000 0.000000 -0.000000 1.019410 1.559748 -0.000000 0.000000 1.456275 -0.000000 -42.362951 -0.000000 -0.000000 0.000002 1.471446 -0.000000 -1.133461 -3.280718 0.625744 0.000000 0.917755 0.000003 133.355865 -0.000001 -0.629534 0.000001 0.940221 -0.000000 1.709736 6.990632 0.000000 0.113772 1.960661 -88.303848 94.660657 0.000031 -0.669733 -0.113771 0.388340 -0.580425 3.558460 127.923036 
0.000000 0.000000 0.000000 -0.000000 1.019410 1.832726 -0.000000 0.000000 1.456275 0.000000 -41.908251 -0.000000 -0.000000 0.000002 1.471446 -0.000000 -1.133462 -3.844836 0.625744 0.000000 0.917755 0.000004 133.066551 -0.000001 -0.629534 0.000001 0.940221 -0.000000 1.709737 8.209257 -0.000001 0.113772 1.960660 -88.303848 95.474570 0.000022 -0.669733 -0.113771 0.388339 -0.558850 3.555552 126.697345 
0.000000 0.000000 0.000000 -0.000000 1.019410 2.097375 -0.000000 0.000000 1.456275 -0.000000 -41.467434 -0.000000 -0.000000 0.000002 1.471446 0.000000 -1.133462 -4.391742 0.625745 0.000000 0.917755 0.000004 132.786049 -0.000001 -0.629534 0.000001 0.940221 -0.000000 1.709737 9.390699 -0.000001 0.113772 1.960661 -88.303855 96.263641 0.000020 -0.669733 -0.113771 0.388339 -0.537997 3.552295 125.509029 
0.000000 0.000000 0.000000 -0.000000 1.019410 2.345464 -0.000000 -0.000000 1.456275 -0.000000 -41.054201 -0.000000 -0.000000 0.000002 1.471446 -0.000000 -1.133458 -4.904428 0.625744 0.000000 0.917755 0.000004 132.523114 -0.000001 -0.629534 0.000001 0.940221 -0.000000 1.709737 10.498215 -0.000001 0.113772 1.960660 -88.303855 97.003344 0.000015 -0.669733 -0.113771 0.388340 -0.518515 3.548850 124.395093 
0.000000 0.000000 0.000000 -0.000000 1.019410 2.590842 -0.000000 -0.000000 1.456275 -0.000000 -40.645476 -0.000000 -0.000000 0.000002 1.471445 0.000000 -1.133458 -5.411509 0.625745 0.000000 0.917755 0.000004 132.263048 -0.000001 -0.629534 0.000001 0.940221 -0.000000 1.709736 11.593627 -0.000001 0.113772 1.960660 -88.303862 97.734953 0.000019 -0.669733 -0.113771 0.388339 -0.499315 3.545069 123.293316 
0.000000 0.000000 0.000000 -0.000000 1.019410 2.852877 -0.000000 0.000000 1.456275 0.000000 -40.209013 -0.000000 -0.000000 0.000002 1.471446 -0.000000 -1.133458 -5.953013 0.625744 0.000000 0.917755 0.000004 131.985319 -0.000001 -0.629534 0.000001 0.940221 -0.000000 1.709736 12.763401 -0.000000 0.113772 1.960661 -88.303862 98.516224 0.000017 -0.669733 -0.113771 0.388339 -0.478896 3.540629 122.116761 
0.000000 0.000000 0.000000 -0.000000 1.019410 3.150940 -0.000000 -0.000000 1.456275 0.000000 -39.712543 0.000000 -0.000000 0.000002 1.471446 -0.000000 -1.133461 -6.568967 0.625745 0.000000 0.917755 0.000004 131.669409 -0.000001 -0.629534 0.000001 0.940221 -0.000000 1.709737 14.094002 -0.000001 0.113772 1.960660 -88.303868 99.404927 0.000014 -0.669733 -0.113771 0.388340 -0.455787 3.535070 120.778467 
0.000000 0.000000 0.000000 -0.000000 1.019410 3.495119 -0.000000 0.000000 1.456275 0.000000 -39.139252 0.000000 -0.000001 0.000002 1.471446 -0.000000 -1.133461 -7.280227 0.625744 0.000000 0.917755 0.000003 131.304622 -0.000001 -0.629534 0.000001 0.940221 -0.000000 1.709736 15.630480 -0.000001 0.113772 1.960660 -88.303862 100.431122 0.000012 -0.669733 -0.113771 0.388339 -0.429273 3.527980 119.233096 
0.000000 0.000000 0.000000 -0.000000 1.019410 3.858404 -0.000000 0.000000 1.456275 -0.000001 -38.534145 -0.000000 -0.000000 0.000002 1.471446 0.000000 -1.133458 -8.030966 0.625745 0.000000 0.917755 0.000004 130.919591 -0.000001 -0.629534 0.000001 0.940221 -0.000000 1.709736 17.252252 -0.000001 0.113772 1.960661 -88.303868 101.514288 0.000011 -0.669733 -0.113771 0.388339 -0.401507 3.519729 117.601979 
0.000000 0.000000 0.000000 -0.000000 1.019410 4.204504 -0.000000 0.000000 1.456275 0.000000 -37.957649 -0.000000 -0.000001 0.000002 1.471446 0.000000 -1.133460 -8.746192 0.625744 0.000000 0.917755 0.000004 130.552769 -0.000002 -0.629534 0.000001 0.940221 -0.000000 1.709736 18.797304 -0.000001 0.113772 1.960660 -88.303868 102.546213 0.000009 -0.669733 -0.113771 0.388340 -0.375283 3.511135 116.048042 
0.000000 0.000000 0.000000 -0.000000 1.019410 4.514952 -0.000000 -0.000000 1.456275 0.000000 -37.440549 -0.000000 -0.000000 0.000002 1.471445 -0.000001 -1.133455 -9.387746 0.625744 0.000000 0.917755 0.000004 130.223717 -0.000002 -0.629534 0.000001 0.940221 -0.000000 1.709736 20.183207 -0.000001 0.113772 1.960660 -88.303868 103.471840 0.000011 -0.669733 -0.113771 0.388341 -0.351967 3.502825 114.654192 
0.000000 0.000000 0.000000 -0.000000 1.019410 4.842587 -0.000000 0.000000 1.456275 0.000000 -36.894810 -0.000000 -0.000000 0.000002 1.471446 -0.000000 -1.133459 -10.064811 0.625744 0.000000 0.917755 0.000004 129.876471 -0.000001 -0.629534 0.000001 0.940221 -0.000000 1.709737 21.645829 -0.000001 0.113772 1.960660 -88.303875 104.448708 0.000006 -0.669733 -0.113771 0.388341 -0.327587 3.493445 113.183181 
0.000000 0.000000 0.000000 -0.000000 1.019410 5.258067 -0.000000 0.000000 1.456275 -0.000000 -36.202759 -0.000000 -0.000000 0.000002 1.471446 -0.000000 -1.133462 -10.923414 0.625745 0.000000 0.917756 0.000004 129.436115 -0.000002 -0.629533 0.000001 0.940221 -0.000000 1.709736 23.500606 -0.000001 0.113772 1.960660 -88.303868 105.687499 0.000008 -0.669733 -0.113771 0.388340 -0.297032 3.480658 111.317802 
0.000000 0.000000 0.000000 -0.000000 1.019410 5.791608 -0.000000 0.000000 1.456275 0.000000 -35.314059 0.000001 -0.000000 0.000002 1.471446 0.000000 -1.133461 -12.025994 0.625745 0.000000 0.917755 0.000003 128.870643 -0.000002 -0.629533 0.000001 0.940221 -0.000000 1.709736 25.882428 -0.000001 0.113772 1.960661 -88.303875 107.278291 0.000007 -0.669733 -0.113771 0.388340 -0.258435 3.462790 108.922420 
0.000000 0.000000 0.000000 -0.000000 1.019410 6.311632 -0.000000 0.000000 1.456275 0.000000 -34.447871 0.000001 -0.000000 0.000002 1.471445 -0.000000 -1.133462 -13.100643 0.625744 0.000000 0.917755 0.000004 128.319474 -0.000003 -0.629533 0.000001 0.940221 -0.000001 1.709737 28.203914 -0.000001 0.113772 1.960660 -88.303875 108.828785 0.000006 -0.669733 -0.113771 0.388340 -0.221568 3.443842 106.587773 
